<svg xmlns="http://www.w3.org/2000/svg" version="1.1" xmlns:xlink="http://www.w3.org/1999/xlink" xmlns:svgjs="http://svgjs.dev/svgjs" width="1500" height="1500" viewBox="0 0 1500 1500"><rect width="1500" height="1500" fill="#ffffff"></rect><g transform="matrix(0.6666666666666666,0,0,0.6666666666666666,249.39393939393938,513.5562798396467)"><svg viewBox="0 0 396 187" data-background-color="#ffffff" preserveAspectRatio="xMidYMid meet" height="708" width="1500" xmlns="http://www.w3.org/2000/svg" xmlns:xlink="http://www.w3.org/1999/xlink"><g id="tight-bounds" transform="matrix(1,0,0,1,0.2400000000000091,0.17579591098743208)"><svg viewBox="0 0 395.52 186.64840817802514" height="186.64840817802514" width="395.52"><g><svg viewBox="0 0 397.4975999999999 187.58165021891523" height="186.64840817802514" width="395.52"><g><rect width="397.4975999999999" height="3.397707007824778" x="0" y="105.43429996217557" fill="#000000" opacity="1" stroke-width="0" stroke="transparent" fill-opacity="1" class="rect-qz-0" data-fill-palette-color="secondary" rx="1%" id="qz-0" data-palette-color="#ffc604"></rect></g><g transform="matrix(1,0,0,1,0.9887999999999693,117.72652793289244)"><svg viewBox="0 0 395.52 69.85512228602278" height="69.85512228602278" width="395.52"><g id="textblocktransform"><svg viewBox="0 0 395.52 69.85512228602278" height="69.85512228602278" width="395.52" id="textblock"><g><svg viewBox="0 0 395.52 37.67651503283726" height="37.67651503283726" width="395.52"><g transform="matrix(1,0,0,1,0,0)"><svg width="395.52" viewBox="2.34 -38.09 405.16 38.6" height="37.67651503283726" data-palette-color="#3d3839"><path d="M2.34-35.55L31.88-35.55 31.88-26.98 28.32-26.98 27.59-31.91 19.53-31.91 19.53-3.76 23.51-3.08 23.51 0 10.74 0 10.74-3.08 14.72-3.76 14.72-31.91 6.67-31.91 5.96-26.98 2.34-26.98 2.34-35.55ZM44.75-32.93L39.69-32.93 39.69-38.09 44.75-38.09 44.75-32.93ZM35.96-3.08L39.94-3.76 39.94-22.63 35.96-23.32 35.96-26.42 44.75-26.42 44.75-3.76 48.73-3.08 48.73 0 35.96 0 35.96-3.08ZM60.79-18.73L60.79-18.73 60.79-3.76 64.77-3.08 64.77 0 52 0 52-3.08 55.98-3.76 55.98-22.63 52-23.32 52-26.42 60.27-26.42 60.69-23.05 60.74-22.58Q61.86-24.61 63.51-25.76 65.16-26.9 67.28-26.9L67.28-26.9Q68.04-26.9 68.83-26.77 69.62-26.64 69.97-26.51L69.97-26.51 69.33-22.05 65.99-22.24Q64.08-22.36 62.79-21.37 61.49-20.39 60.79-18.73ZM84.93 0.51L84.93 0.51Q81.27 0.51 78.56-1.17L78.56-1.17Q75.85-2.83 74.37-5.81 72.89-8.79 72.89-12.7L72.89-12.7 72.89-13.77Q72.89-17.55 74.46-20.51L74.46-20.51Q75.99-23.49 78.57-25.2 81.14-26.9 84.2-26.9L84.2-26.9Q87.76-26.9 90.18-25.44L90.18-25.44Q92.57-23.97 93.79-21.33 95.01-18.68 95.01-15.09L95.01-15.09 95.01-12.08 77.87-12.08 77.8-11.96Q77.82-9.47 78.7-7.47L78.7-7.47Q79.56-5.49 81.13-4.37 82.71-3.25 84.93-3.25L84.93-3.25Q87.37-3.25 89.21-3.94 91.06-4.64 92.4-5.86L92.4-5.86 94.28-2.73Q92.86-1.37 90.53-0.43 88.2 0.51 84.93 0.51ZM77.97-15.97L77.97-15.97 78.02-15.84 90.2-15.84 90.2-16.48Q90.2-18.41 89.54-19.9L89.54-19.9Q88.86-21.41 87.53-22.27 86.2-23.12 84.2-23.12L84.2-23.12Q82.61-23.12 81.27-22.19L81.27-22.19Q78.53-20.21 77.97-15.97ZM109.44 0.51L109.44 0.51Q106.78 0.51 104.46-0.02 102.14-0.56 99.53-1.68L99.53-1.68 99.48-7.96 103.12-7.96 104.02-4.17Q106.61-3.1 109.44-3.1L109.44-3.1Q112.37-3.1 113.64-4.22 114.91-5.35 114.91-7.01L114.91-7.01Q114.91-8.57 113.63-9.66 112.34-10.74 108.97-11.5L108.97-11.5Q104.19-12.6 101.93-14.44 99.67-16.28 99.67-19.36L99.67-19.36Q99.67-21.51 100.92-23.22L100.92-23.22Q102.16-24.9 104.38-25.9 106.61-26.9 109.56-26.9L109.56-26.9Q112.56-26.9 114.7-26.22 116.84-25.54 118.42-24.39L118.42-24.39 118.67-18.36 115.05-18.36 114.27-21.88Q112.49-23.19 109.56-23.19L109.56-23.19Q107.31-23.19 105.91-22.14 104.51-21.09 104.51-19.51L104.51-19.51Q104.51-18.6 104.92-17.9L104.92-17.9Q105.36-17.14 106.68-16.58 108-16.02 109.83-15.58L109.83-15.58Q115.35-14.28 117.53-12.28 119.72-10.28 119.72-7.35L119.72-7.35Q119.72-4 117.24-1.75 114.76 0.51 109.44 0.51ZM157.02 0.51L157.02 0.51Q151.67 0.51 148.11-1.83L148.11-1.83Q144.52-4.17 142.72-8.25 140.93-12.33 140.93-17.5L140.93-17.5 140.93-18.02Q140.93-23.22 142.81-27.32L142.81-27.32Q144.69-31.4 148.2-33.73 151.72-36.06 156.6-36.06L156.6-36.06Q160.04-36.06 162.9-34.99 165.76-33.91 167.64-32.25L167.64-32.25 167.64-24.58 163.8-24.58 163.29-30.2Q162.56-30.81 161.51-31.23L161.51-31.23Q159.43-32.08 156.58-32.08L156.58-32.08Q153.06-32.08 150.67-30.3L150.67-30.3Q148.25-28.52 147.01-25.35 145.76-22.19 145.76-18.07L145.76-18.07 145.76-17.5Q145.76-13.01 147.1-9.89L147.1-9.89Q149.81-3.39 157.19-3.39L157.19-3.39Q158.9-3.39 160.53-3.81 162.17-4.22 163.24-4.88L163.24-4.88 163.78-9.84 167.54-9.84 167.54-2.12Q165.54-0.88 162.75-0.18 159.97 0.51 157.02 0.51ZM180.82 0.51L180.82 0.51Q176.69 0.51 174.54-1.5 172.39-3.52 172.39-7.18L172.39-7.18Q172.39-9.72 173.79-11.57L173.79-11.57Q175.15-13.45 177.77-14.48 180.38-15.5 184.02-15.5L184.02-15.5 188.73-15.5 188.73-18.09Q188.73-20.48 187.27-21.8 185.82-23.12 183.19-23.12L183.19-23.12Q181.53-23.12 180.3-22.72 179.08-22.31 178.08-21.61L178.08-21.61 177.57-17.92 173.86-17.92 173.86-23.97Q177.45-26.9 183.26-26.9L183.26-26.9Q188.07-26.9 190.8-24.61 193.54-22.31 193.54-18.04L193.54-18.04 193.54-5.32Q193.54-4.81 193.55-4.32 193.56-3.83 193.61-3.34L193.61-3.34 196.17-3.08 196.17 0 189.26 0Q188.85-2 188.75-3.64L188.75-3.64Q187.36-1.86 185.27-0.67 183.19 0.51 180.82 0.51ZM181.53-3.52L181.53-3.52Q183.92-3.52 185.9-4.66 187.87-5.81 188.73-7.42L188.73-7.42 188.73-12.21 183.84-12.21Q180.52-12.21 178.86-10.62 177.2-9.03 177.2-7.08L177.2-7.08Q177.2-3.52 181.53-3.52ZM208.65-18.73L208.65-18.73 208.65-3.76 212.63-3.08 212.63 0 199.86 0 199.86-3.08 203.84-3.76 203.84-22.63 199.86-23.32 199.86-26.42 208.13-26.42 208.55-23.05 208.6-22.58Q209.72-24.61 211.37-25.76 213.02-26.9 215.14-26.9L215.14-26.9Q215.9-26.9 216.69-26.77 217.48-26.64 217.83-26.51L217.83-26.51 217.19-22.05 213.85-22.24Q211.94-22.36 210.65-21.37 209.36-20.39 208.65-18.73ZM250.83 0.51L250.83 0.51Q247.58 0.51 244.58-0.44 241.58-1.39 238.84-3.37L238.84-3.37 238.84-10.96 242.58-10.96 243.38-5.37Q244.97-4.39 246.83-3.86 248.68-3.32 250.83-3.32L250.83-3.32Q253.3-3.32 254.98-4.08L254.98-4.08Q258.47-5.59 258.47-9.2L258.47-9.2Q258.47-10.82 257.69-12.08L257.69-12.08Q256.91-13.33 255.11-14.27 253.32-15.21 250.22-15.92L250.22-15.92Q246.65-16.75 244.04-18.21L244.04-18.21Q238.89-21.12 238.89-26.34L238.89-26.34Q238.89-29.15 240.38-31.32L240.38-31.32Q241.85-33.52 244.48-34.79 247.12-36.06 250.63-36.06L250.63-36.06Q254.37-36.06 257.24-34.92 260.11-33.79 261.96-32.18L261.96-32.18 261.96-25.07 258.23-25.07 257.42-30.15Q256.32-31.03 254.69-31.62 253.05-32.2 250.63-32.2L250.63-32.2Q248.63-32.2 247.02-31.49L247.02-31.49Q245.46-30.76 244.58-29.47 243.7-28.17 243.7-26.42L243.7-26.42Q243.7-24.88 244.51-23.73L244.51-23.73Q245.97-21.56 251.88-20.09L251.88-20.09Q263.28-17.26 263.28-9.25L263.28-9.25Q263.28-6.4 261.74-4.2L261.74-4.2Q260.2-1.98 257.41-0.73 254.61 0.51 250.83 0.51ZM279.32 0.51L279.32 0.51Q275.66 0.51 272.95-1.17L272.95-1.17Q270.24-2.83 268.76-5.81 267.28-8.79 267.28-12.7L267.28-12.7 267.28-13.77Q267.28-17.55 268.84-20.51L268.84-20.51Q270.38-23.49 272.96-25.2 275.53-26.9 278.59-26.9L278.59-26.9Q282.15-26.9 284.57-25.44L284.57-25.44Q286.96-23.97 288.18-21.33 289.4-18.68 289.4-15.09L289.4-15.09 289.4-12.08 272.26-12.08 272.19-11.96Q272.21-9.47 273.09-7.47L273.09-7.47Q273.95-5.49 275.52-4.37 277.1-3.25 279.32-3.25L279.32-3.25Q281.76-3.25 283.6-3.94 285.45-4.64 286.79-5.86L286.79-5.86 288.67-2.73Q287.25-1.37 284.92-0.43 282.59 0.51 279.32 0.51ZM272.36-15.97L272.36-15.97 272.41-15.84 284.59-15.84 284.59-16.48Q284.59-18.41 283.93-19.9L283.93-19.9Q283.25-21.41 281.92-22.27 280.59-23.12 278.59-23.12L278.59-23.12Q277-23.12 275.66-22.19L275.66-22.19Q272.92-20.21 272.36-15.97ZM301.87-18.73L301.87-18.73 301.87-3.76 305.85-3.08 305.85 0 293.09 0 293.09-3.08 297.06-3.76 297.06-22.63 293.09-23.32 293.09-26.42 301.36-26.42 301.78-23.05 301.83-22.58Q302.95-24.61 304.6-25.76 306.24-26.9 308.37-26.9L308.37-26.9Q309.13-26.9 309.92-26.77 310.71-26.64 311.05-26.51L311.05-26.51 310.42-22.05 307.07-22.24Q305.17-22.36 303.88-21.37 302.58-20.39 301.87-18.73ZM327.14-5.66L327.92-7.79 333.37-22.83 329.83-23.32 329.83-26.42 340.89-26.42 340.89-23.32 338.1-22.95 329.17 0 324.94 0 315.54-22.95 312.81-23.32 312.81-26.42 323.89-26.42 323.89-23.32 320.45-22.83 326.31-7.79 326.99-5.66 327.14-5.66ZM352.04-32.93L346.99-32.93 346.99-38.09 352.04-38.09 352.04-32.93ZM343.25-3.08L347.23-3.76 347.23-22.63 343.25-23.32 343.25-26.42 352.04-26.42 352.04-3.76 356.02-3.08 356.02 0 343.25 0 343.25-3.08ZM371.28 0.51L371.28 0.51Q367.71 0.51 365.03-1.17L365.03-1.17Q362.36-2.83 360.9-5.81 359.44-8.79 359.44-12.7L359.44-12.7 359.44-13.72Q359.44-17.53 360.85-20.46L360.85-20.46Q362.27-23.44 364.93-25.17 367.59-26.9 371.28-26.9L371.28-26.9Q374.47-26.9 376.88-25.85 379.28-24.8 380.92-22.97L380.92-22.97 381.04-16.63 377.28-16.63 376.45-21.24Q375.62-22.09 374.38-22.61 373.13-23.12 371.45-23.12L371.45-23.12Q369.27-23.12 367.69-21.85L367.69-21.85Q366.05-20.58 365.15-18.46 364.24-16.33 364.24-13.72L364.24-13.72 364.24-12.7Q364.24-9.84 365.1-7.69L365.1-7.69Q365.95-5.57 367.52-4.41 369.08-3.25 371.25-3.25L371.25-3.25Q373.69-3.25 375.3-4.59 376.92-5.93 377.28-8.28L377.28-8.28 381.6-8.28 381.65-8.13Q381.55-5.91 380.31-3.88L380.31-3.88Q379.09-1.9 376.83-0.7 374.57 0.51 371.28 0.51ZM397.42 0.51L397.42 0.51Q393.76 0.51 391.05-1.17L391.05-1.17Q388.34-2.83 386.86-5.81 385.38-8.79 385.38-12.7L385.38-12.7 385.38-13.77Q385.38-17.55 386.95-20.51L386.95-20.51Q388.49-23.49 391.06-25.2 393.64-26.9 396.69-26.9L396.69-26.9Q400.25-26.9 402.67-25.44L402.67-25.44Q405.06-23.97 406.28-21.33 407.5-18.68 407.5-15.09L407.5-15.09 407.5-12.08 390.37-12.08 390.29-11.96Q390.32-9.47 391.2-7.47L391.2-7.47Q392.05-5.49 393.62-4.37 395.2-3.25 397.42-3.25L397.42-3.25Q399.86-3.25 401.71-3.94 403.55-4.64 404.89-5.86L404.89-5.86 406.77-2.73Q405.36-1.37 403.02-0.43 400.69 0.51 397.42 0.51ZM390.46-15.97L390.46-15.97 390.51-15.84 402.69-15.84 402.69-16.48Q402.69-18.41 402.04-19.9L402.04-19.9Q401.35-21.41 400.02-22.27 398.69-23.12 396.69-23.12L396.69-23.12Q395.1-23.12 393.76-22.19L393.76-22.19Q391.02-20.21 390.46-15.97Z" opacity="1" transform="matrix(1,0,0,1,0,0)" fill="#000000" class="wordmark-text-0" data-fill-palette-color="primary" id="text-0"></path></svg></g></svg></g><g transform="matrix(1,0,0,1,0,46.571035995729346)"><svg viewBox="0 0 395.52 23.284086290293427" height="23.284086290293427" width="395.52"><g transform="matrix(1,0,0,1,0,0)"><svg width="395.52" viewBox="4.45 -32.9 720.24 42.4" height="23.284086290293427" data-palette-color="#ffc604"><path d="M8.5-30L8.5-12.3 4.45-12.35 4.45-28.2Q4.45-29.2 5.05-29.8 5.65-30.4 6.65-30.4L6.65-30.4Q7.2-30.4 7.75-30.25 8.3-30.1 8.5-30L8.5-30ZM20.4-13.1L6.65-13.1 6.65-16.55 21.5-16.55Q21.65-16.3 21.8-15.88 21.95-15.45 21.95-14.95L21.95-14.95Q21.95-14.15 21.55-13.63 21.15-13.1 20.4-13.1L20.4-13.1ZM22.15-26.95L6.65-26.95 6.65-30.4 23.25-30.4Q23.4-30.2 23.55-29.75 23.7-29.3 23.7-28.8L23.7-28.8Q23.7-28 23.3-27.48 22.9-26.95 22.15-26.95L22.15-26.95ZM4.45-1.55L4.45-17.8 8.55-17.8 8.55-0.05Q8.3 0 7.78 0.13 7.25 0.25 6.7 0.25L6.7 0.25Q5.6 0.25 5.03-0.2 4.45-0.65 4.45-1.55L4.45-1.55ZM46.15 0.7L46.15 0.7Q41.45 0.7 38.87-1.15 36.3-3 36.3-6.5L36.3-6.5Q36.3-9.75 38.47-11.48 40.65-13.2 44.5-13.55L44.5-13.55 51.6-14.25 51.6-15.65Q51.6-18.15 50.1-19.3 48.6-20.45 46.05-20.45L46.05-20.45Q44-20.45 42.12-19.85 40.25-19.25 38.8-18.5L38.8-18.5Q38.4-18.85 38.07-19.33 37.75-19.8 37.75-20.3L37.75-20.3Q37.75-21.6 39.2-22.3L39.2-22.3Q40.55-23 42.32-23.38 44.1-23.75 46.1-23.75L46.1-23.75Q50.45-23.75 53-21.8 55.55-19.85 55.55-15.65L55.55-15.65 55.55-3.8Q55.55-2.7 55.12-2.13 54.7-1.55 53.85-1.05L53.85-1.05Q52.65-0.4 50.65 0.15 48.65 0.7 46.15 0.7ZM46.15-2.6L46.15-2.6Q48.25-2.6 49.62-3.03 51-3.45 51.6-3.85L51.6-3.85 51.6-11.1 45.4-10.45Q42.8-10.25 41.55-9.3 40.3-8.35 40.3-6.55L40.3-6.55Q40.3-4.7 41.77-3.65 43.25-2.6 46.15-2.6ZM87.44-6.15L87.44-6.15Q87.44-2.95 85.09-1.15 82.74 0.65 78.29 0.65L78.29 0.65Q74.49 0.65 72.09-0.53 69.69-1.7 69.69-3.1L69.69-3.1Q69.69-3.7 70.02-4.28 70.34-4.85 70.99-5.2L70.99-5.2Q72.34-4.25 74.14-3.45 75.94-2.65 78.24-2.65L78.24-2.65Q83.44-2.65 83.44-6.15L83.44-6.15Q83.44-7.6 82.57-8.53 81.69-9.45 79.99-9.85L79.99-9.85 75.84-10.95Q72.79-11.7 71.39-13.28 69.99-14.85 69.99-17.2L69.99-17.2Q69.99-19.85 72.14-21.8 74.29-23.75 78.69-23.75L78.69-23.75Q81.04-23.75 82.79-23.28 84.54-22.8 85.52-22.03 86.49-21.25 86.49-20.35L86.49-20.35Q86.49-19.7 86.17-19.2 85.84-18.7 85.29-18.45L85.29-18.45Q84.69-18.85 83.77-19.33 82.84-19.8 81.59-20.13 80.34-20.45 78.84-20.45L78.84-20.45Q76.64-20.45 75.29-19.6 73.94-18.75 73.94-17.2L73.94-17.2Q73.94-16.1 74.72-15.28 75.49-14.45 77.19-14.05L77.19-14.05 80.64-13.2Q84.04-12.4 85.74-10.68 87.44-8.95 87.44-6.15ZM101.84-6.05L101.84-13.2 105.84-13.2 105.84-6.3Q105.84-4.3 106.99-3.48 108.14-2.65 110.14-2.65L110.14-2.65Q110.99-2.65 112.04-2.95 113.09-3.25 113.79-3.65L113.79-3.65Q114.09-3.35 114.34-2.9 114.59-2.45 114.59-1.85L114.59-1.85Q114.59-0.75 113.29-0.05 111.99 0.65 109.69 0.65L109.69 0.65Q106.19 0.65 104.01-0.9 101.84-2.45 101.84-6.05L101.84-6.05ZM112.99-19.3L103.89-19.3 103.89-22.6 114.04-22.6Q114.19-22.4 114.34-21.95 114.49-21.5 114.49-21L114.49-21Q114.49-20.2 114.09-19.75 113.69-19.3 112.99-19.3L112.99-19.3ZM105.84-28.35L105.84-11.7 101.84-11.7 101.84-29.8Q102.09-29.9 102.61-30.03 103.14-30.15 103.74-30.15L103.74-30.15Q104.79-30.15 105.31-29.73 105.84-29.3 105.84-28.35L105.84-28.35ZM163.98 2.9L159.73 0 163.58-1.2Q166.73 0.6 168.83 1.65 170.93 2.7 172.6 3.4 174.28 4.1 176.13 4.8L176.13 4.8Q176.23 5.15 176.23 5.38 176.23 5.6 176.23 5.8L176.23 5.8Q176.23 6.75 175.65 7.33 175.08 7.9 174.03 7.9L174.03 7.9Q172.43 7.9 169.83 6.53 167.23 5.15 163.98 2.9L163.98 2.9ZM174.93-15.2L174.93-15.2Q174.93-10 173.03-6.48 171.13-2.95 167.85-1.15 164.58 0.65 160.43 0.65L160.43 0.65Q156.33 0.65 153.03-1.15 149.73-2.95 147.83-6.48 145.93-10 145.93-15.2L145.93-15.2Q145.93-20.4 147.88-23.93 149.83-27.45 153.1-29.25 156.38-31.05 160.43-31.05L160.43-31.05Q164.53-31.05 167.8-29.25 171.08-27.45 173-23.93 174.93-20.4 174.93-15.2ZM170.78-15.2L170.78-15.2Q170.78-21.15 167.95-24.38 165.13-27.6 160.43-27.6L160.43-27.6Q155.78-27.6 152.95-24.38 150.13-21.15 150.13-15.2L150.13-15.2Q150.13-9.25 152.93-6.03 155.73-2.8 160.43-2.8L160.43-2.8Q165.18-2.8 167.98-6.03 170.78-9.25 170.78-15.2ZM189.77-8.45L189.77-8.45 189.77-13 193.77-13 193.77-8.65Q193.77-5.45 195.47-4.05 197.17-2.65 200.17-2.65L200.17-2.65Q202.17-2.65 203.57-3.08 204.97-3.5 205.77-3.95L205.77-3.95 205.77-13 209.77-13 209.77-4.1Q209.77-3.05 209.5-2.43 209.22-1.8 208.17-1.2L208.17-1.2Q207.07-0.55 205.02 0.05 202.97 0.65 200.12 0.65L200.12 0.65Q196.82 0.65 194.5-0.33 192.17-1.3 190.97-3.33 189.77-5.35 189.77-8.45ZM209.77-21.5L209.77-10.4 205.77-10.4 205.77-23Q206.02-23.1 206.55-23.23 207.07-23.35 207.62-23.35L207.62-23.35Q208.72-23.35 209.25-22.93 209.77-22.5 209.77-21.5L209.77-21.5ZM193.77-21.5L193.77-10.4 189.77-10.4 189.77-23Q190.02-23.1 190.55-23.23 191.07-23.35 191.67-23.35L191.67-23.35Q192.72-23.35 193.25-22.93 193.77-22.5 193.77-21.5L193.77-21.5ZM233.82 0.7L233.82 0.7Q229.12 0.7 226.54-1.15 223.97-3 223.97-6.5L223.97-6.5Q223.97-9.75 226.14-11.48 228.32-13.2 232.17-13.55L232.17-13.55 239.27-14.25 239.27-15.65Q239.27-18.15 237.77-19.3 236.27-20.45 233.72-20.45L233.72-20.45Q231.67-20.45 229.79-19.85 227.92-19.25 226.47-18.5L226.47-18.5Q226.07-18.85 225.74-19.33 225.42-19.8 225.42-20.3L225.42-20.3Q225.42-21.6 226.87-22.3L226.87-22.3Q228.22-23 229.99-23.38 231.77-23.75 233.77-23.75L233.77-23.75Q238.12-23.75 240.67-21.8 243.22-19.85 243.22-15.65L243.22-15.65 243.22-3.8Q243.22-2.7 242.79-2.13 242.37-1.55 241.52-1.05L241.52-1.05Q240.32-0.4 238.32 0.15 236.32 0.7 233.82 0.7ZM233.82-2.6L233.82-2.6Q235.92-2.6 237.29-3.03 238.67-3.45 239.27-3.85L239.27-3.85 239.27-11.1 233.07-10.45Q230.47-10.25 229.22-9.3 227.97-8.35 227.97-6.55L227.97-6.55Q227.97-4.7 229.44-3.65 230.92-2.6 233.82-2.6ZM259.21-1.55L259.21-13.2 263.21-12.6 263.21-0.1Q262.96 0 262.46 0.13 261.96 0.25 261.36 0.25L261.36 0.25Q260.31 0.25 259.76-0.18 259.21-0.6 259.21-1.55L259.21-1.55ZM263.21-30.95L263.21-10.7 259.21-11.25 259.21-32.4Q259.46-32.5 259.99-32.63 260.51-32.75 261.06-32.75L261.06-32.75Q262.16-32.75 262.69-32.33 263.21-31.9 263.21-30.95L263.21-30.95ZM279.06-30.4L279.06-30.4Q279.06-31.45 279.81-32.18 280.56-32.9 281.66-32.9L281.66-32.9Q282.81-32.9 283.51-32.18 284.21-31.45 284.21-30.4L284.21-30.4Q284.21-29.35 283.51-28.63 282.81-27.9 281.66-27.9L281.66-27.9Q280.56-27.9 279.81-28.63 279.06-29.35 279.06-30.4ZM279.66-1.55L279.66-13.2 283.66-13.2 283.66-0.1Q283.41 0 282.91 0.13 282.41 0.25 281.81 0.25L281.81 0.25Q280.76 0.25 280.21-0.18 279.66-0.6 279.66-1.55L279.66-1.55ZM283.66-21.5L283.66-11.25 279.66-11.25 279.66-23Q279.91-23.1 280.43-23.23 280.96-23.35 281.56-23.35L281.56-23.35Q282.61-23.35 283.13-22.93 283.66-22.5 283.66-21.5L283.66-21.5ZM299.8-6.05L299.8-13.2 303.8-13.2 303.8-6.3Q303.8-4.3 304.95-3.48 306.1-2.65 308.1-2.65L308.1-2.65Q308.95-2.65 310-2.95 311.05-3.25 311.75-3.65L311.75-3.65Q312.05-3.35 312.3-2.9 312.55-2.45 312.55-1.85L312.55-1.85Q312.55-0.75 311.25-0.05 309.95 0.65 307.65 0.65L307.65 0.65Q304.15 0.65 301.98-0.9 299.8-2.45 299.8-6.05L299.8-6.05ZM310.95-19.3L301.85-19.3 301.85-22.6 312-22.6Q312.15-22.4 312.3-21.95 312.45-21.5 312.45-21L312.45-21Q312.45-20.2 312.05-19.75 311.65-19.3 310.95-19.3L310.95-19.3ZM303.8-28.35L303.8-11.7 299.8-11.7 299.8-29.8Q300.05-29.9 300.58-30.03 301.1-30.15 301.7-30.15L301.7-30.15Q302.75-30.15 303.28-29.73 303.8-29.3 303.8-28.35L303.8-28.35ZM331.35-5.15L331.35-5.15Q330.5-6.75 329.3-9.47 328.1-12.2 326.82-15.58 325.55-18.95 324.4-22.45L324.4-22.45Q324.75-22.95 325.32-23.25 325.9-23.55 326.55-23.55L326.55-23.55Q327.4-23.55 327.95-23.1 328.5-22.65 328.85-21.6L328.85-21.6Q330.35-17.4 332-13.25 333.65-9.1 335.65-4.65L335.65-4.65 335.85-4.65Q336.9-6.75 338.05-9.9 339.2-13.05 340.25-16.55 341.3-20.05 342-23.15L342-23.15Q342.35-23.3 342.77-23.43 343.2-23.55 343.7-23.55L343.7-23.55Q344.55-23.55 345.1-23.13 345.65-22.7 345.65-21.85L345.65-21.85Q345.65-21.05 345.2-19.18 344.75-17.3 343.97-14.83 343.2-12.35 342.17-9.58 341.15-6.8 339.97-4.13 338.8-1.45 337.6 0.7L337.6 0.7Q335.3 4.95 333.4 7.23 331.5 9.5 329.9 9.5L329.9 9.5Q328.75 9.5 328.12 8.9 327.5 8.3 327.35 7.5L327.35 7.5Q328.45 6.55 329.82 4.98 331.2 3.4 332.47 1.58 333.75-0.25 334.55-1.9L334.55-1.9Q333.7-2.15 332.97-2.8 332.25-3.45 331.35-5.15ZM356.44-2.1L356.44-2.1Q356.44-3.3 357.17-4.1 357.89-4.9 359.19-4.9L359.19-4.9Q360.49-4.9 361.19-4.1 361.89-3.3 361.89-2.1L361.89-2.1Q361.89-0.95 361.19-0.15 360.49 0.65 359.19 0.65L359.19 0.65Q357.89 0.65 357.17-0.15 356.44-0.95 356.44-2.1ZM415.93-27.05L415.93-27.05Q415.93-26.4 415.51-25.88 415.08-25.35 414.53-25.1L414.53-25.1Q413.28-26 411.51-26.8 409.73-27.6 406.93-27.6L406.93-27.6Q403.88-27.6 401.46-26.2 399.03-24.8 397.61-22.03 396.18-19.25 396.18-15.15L396.18-15.15Q396.18-9 399.21-5.9 402.23-2.8 407.08-2.8L407.08-2.8Q409.68-2.8 411.63-3.55 413.58-4.3 414.83-5.25L414.83-5.25Q415.33-5.05 415.78-4.53 416.23-4 416.23-3.3L416.23-3.3Q416.23-2.8 415.96-2.33 415.68-1.85 415.03-1.4L415.03-1.4Q413.88-0.6 411.88 0.03 409.88 0.65 406.78 0.65L406.78 0.65Q402.63 0.65 399.26-1.13 395.88-2.9 393.93-6.4 391.98-9.9 391.98-15.15L391.98-15.15Q391.98-20.4 394.01-23.95 396.03-27.5 399.36-29.28 402.68-31.05 406.63-31.05L406.63-31.05Q409.38-31.05 411.48-30.45 413.58-29.85 414.76-28.93 415.93-28 415.93-27.05ZM450.78-14.65L450.78-9.95 446.78-9.95 446.78-14.55Q446.78-17.55 445.1-19 443.43-20.45 440.78-20.45L440.78-20.45Q438.83-20.45 437.15-19.7 435.48-18.95 434.33-17.9L434.33-17.9 433.58-21.15Q434.78-22 436.75-22.88 438.73-23.75 441.33-23.75L441.33-23.75Q445.48-23.75 448.13-21.5 450.78-19.25 450.78-14.65L450.78-14.65ZM430.83-1.55L430.83-13.2 434.83-13.2 434.83-0.1Q434.58 0 434.08 0.13 433.58 0.25 432.98 0.25L432.98 0.25Q431.93 0.25 431.38-0.18 430.83-0.6 430.83-1.55L430.83-1.55ZM446.78-1.55L446.78-13.15 450.78-13.1 450.78-0.1Q450.53 0 450 0.13 449.48 0.25 448.93 0.25L448.93 0.25Q447.83 0.25 447.3-0.18 446.78-0.6 446.78-1.55L446.78-1.55ZM434.83-30.95L434.83-11.25 430.83-11.25 430.83-32.4Q431.08-32.5 431.6-32.63 432.13-32.75 432.73-32.75L432.73-32.75Q433.78-32.75 434.3-32.33 434.83-31.9 434.83-30.95L434.83-30.95ZM484.82-11.35L468.02-9 467.82-12.15 482.92-14.2Q482.72-16.95 481.02-18.73 479.32-20.5 476.32-20.5L476.32-20.5Q473.22-20.5 471.2-18.28 469.17-16.05 469.17-11.9L469.17-11.9 469.17-10.8Q469.52-6.8 471.8-4.73 474.07-2.65 478.02-2.65L478.02-2.65Q480.12-2.65 481.82-3.35 483.52-4.05 484.52-4.85L484.52-4.85Q485.07-4.5 485.4-4.03 485.72-3.55 485.72-2.95L485.72-2.95Q485.72-2 484.65-1.18 483.57-0.35 481.8 0.15 480.02 0.65 477.82 0.65L477.82 0.65Q473.97 0.65 471.15-0.75 468.32-2.15 466.8-4.93 465.27-7.7 465.27-11.7L465.27-11.7Q465.27-14.55 466.1-16.78 466.92-19 468.4-20.55 469.87-22.1 471.92-22.93 473.97-23.75 476.37-23.75L476.37-23.75Q479.42-23.75 481.75-22.45 484.07-21.15 485.4-18.82 486.72-16.5 486.72-13.5L486.72-13.5Q486.72-12.4 486.22-11.93 485.72-11.45 484.82-11.35L484.82-11.35ZM509.07 0.7L509.07 0.7Q504.37 0.7 501.79-1.15 499.22-3 499.22-6.5L499.22-6.5Q499.22-9.75 501.39-11.48 503.57-13.2 507.42-13.55L507.42-13.55 514.52-14.25 514.52-15.65Q514.52-18.15 513.02-19.3 511.52-20.45 508.97-20.45L508.97-20.45Q506.92-20.45 505.04-19.85 503.17-19.25 501.72-18.5L501.72-18.5Q501.32-18.85 500.99-19.33 500.67-19.8 500.67-20.3L500.67-20.3Q500.67-21.6 502.12-22.3L502.12-22.3Q503.47-23 505.24-23.38 507.02-23.75 509.02-23.75L509.02-23.75Q513.37-23.75 515.92-21.8 518.47-19.85 518.47-15.65L518.47-15.65 518.47-3.8Q518.47-2.7 518.04-2.13 517.62-1.55 516.77-1.05L516.77-1.05Q515.57-0.4 513.57 0.15 511.57 0.7 509.07 0.7ZM509.07-2.6L509.07-2.6Q511.17-2.6 512.54-3.03 513.92-3.45 514.52-3.85L514.52-3.85 514.52-11.1 508.32-10.45Q505.72-10.25 504.47-9.3 503.22-8.35 503.22-6.55L503.22-6.55Q503.22-4.7 504.69-3.65 506.17-2.6 509.07-2.6ZM543.91 0.65L543.91 0.65Q541.76 0.65 539.89 0.03 538.01-0.6 537.16-1.35L537.16-1.35 537.16-5.05Q538.16-4.1 539.69-3.38 541.21-2.65 543.36-2.65L543.36-2.65Q546.86-2.65 548.99-4.78 551.11-6.9 551.11-11.6L551.11-11.6Q551.11-14.9 550.04-16.82 548.96-18.75 547.19-19.6 545.41-20.45 543.36-20.45L543.36-20.45Q541.56-20.45 540.31-20 539.06-19.55 538.06-19L538.06-19 538.06-2.4 534.06-2.4 534.06-18.9Q534.06-19.9 534.41-20.5 534.76-21.1 535.86-21.75L535.86-21.75Q537.21-22.5 539.09-23.13 540.96-23.75 543.36-23.75L543.36-23.75Q546.66-23.75 549.34-22.48 552.01-21.2 553.59-18.53 555.16-15.85 555.16-11.6L555.16-11.6Q555.16-7.5 553.74-4.78 552.31-2.05 549.76-0.7 547.21 0.65 543.91 0.65ZM536.21 9.35L536.21 9.35Q535.16 9.35 534.61 8.9 534.06 8.45 534.06 7.5L534.06 7.5 534.06-3.85 538.06-3.75 538.06 9Q537.81 9.1 537.31 9.22 536.81 9.35 536.21 9.35ZM597.81-10.85L588.66-10.85 588.66-28.2Q588.66-29 589.08-29.43 589.51-29.85 590.31-30.1L590.31-30.1Q591.76-30.55 593.83-30.75 595.91-30.95 597.86-30.95L597.86-30.95Q604.21-30.95 607.13-28.28 610.06-25.6 610.06-21.05L610.06-21.05Q610.06-17.95 608.73-15.65 607.41-13.35 604.71-12.1 602.01-10.85 597.81-10.85L597.81-10.85ZM590.86 0.25L590.86 0.25Q589.76 0.25 589.21-0.2 588.66-0.65 588.66-1.6L588.66-1.6 588.66-12.8 592.76-12.8 592.76-0.1Q592.46 0 591.96 0.13 591.46 0.25 590.86 0.25ZM592.71-27.1L592.71-14.25 597.56-14.25Q601.56-14.25 603.76-15.93 605.96-17.6 605.96-21L605.96-21Q605.96-24.4 603.83-25.98 601.71-27.55 597.76-27.55L597.76-27.55Q596.41-27.55 595.08-27.43 593.76-27.3 592.71-27.1L592.71-27.1ZM628.6-18.8L628.6-18.8 628.6-10.9 624.6-10.9 624.6-18.5Q624.6-19.65 625.03-20.33 625.45-21 626.45-21.65L626.45-21.65Q627.75-22.5 630-23.13 632.25-23.75 635-23.75L635-23.75Q639-23.75 639-21.75L639-21.75Q639-21.25 638.85-20.83 638.7-20.4 638.45-20.1L638.45-20.1Q637.95-20.2 637.15-20.3 636.35-20.4 635.55-20.4L635.55-20.4Q633.25-20.4 631.5-19.93 629.75-19.45 628.6-18.8ZM624.6-1.55L624.6-13.2 628.6-12.6 628.6-0.1Q628.35 0 627.85 0.13 627.35 0.25 626.75 0.25L626.75 0.25Q625.7 0.25 625.15-0.18 624.6-0.6 624.6-1.55L624.6-1.55ZM651.65-30.4L651.65-30.4Q651.65-31.45 652.4-32.18 653.15-32.9 654.25-32.9L654.25-32.9Q655.4-32.9 656.1-32.18 656.8-31.45 656.8-30.4L656.8-30.4Q656.8-29.35 656.1-28.63 655.4-27.9 654.25-27.9L654.25-27.9Q653.15-27.9 652.4-28.63 651.65-29.35 651.65-30.4ZM652.25-1.55L652.25-13.2 656.25-13.2 656.25-0.1Q656 0 655.5 0.13 655 0.25 654.4 0.25L654.4 0.25Q653.35 0.25 652.8-0.18 652.25-0.6 652.25-1.55L652.25-1.55ZM656.25-21.5L656.25-11.25 652.25-11.25 652.25-23Q652.5-23.1 653.02-23.23 653.55-23.35 654.15-23.35L654.15-23.35Q655.2-23.35 655.72-22.93 656.25-22.5 656.25-21.5L656.25-21.5ZM683.04-20.4L683.04-20.4Q679.64-20.4 677.39-18.1 675.14-15.8 675.14-11.5L675.14-11.5Q675.14-7.25 677.32-4.95 679.49-2.65 683.04-2.65L683.04-2.65Q685.14-2.65 686.54-3.23 687.94-3.8 689.04-4.55L689.04-4.55Q689.59-4.25 689.94-3.8 690.29-3.35 690.29-2.7L690.29-2.7Q690.29-1.3 688.22-0.33 686.14 0.65 683.04 0.65L683.04 0.65Q679.59 0.65 676.87-0.68 674.14-2 672.59-4.7 671.04-7.4 671.04-11.5L671.04-11.5Q671.04-15.55 672.64-18.28 674.24-21 676.97-22.38 679.69-23.75 682.94-23.75L682.94-23.75Q686.04-23.75 688.07-22.7 690.09-21.65 690.09-20.3L690.09-20.3Q690.09-19.7 689.74-19.25 689.39-18.8 688.84-18.55L688.84-18.55Q687.74-19.3 686.42-19.85 685.09-20.4 683.04-20.4ZM722.79-11.35L705.99-9 705.79-12.15 720.89-14.2Q720.69-16.95 718.99-18.73 717.29-20.5 714.29-20.5L714.29-20.5Q711.19-20.5 709.16-18.28 707.14-16.05 707.14-11.9L707.14-11.9 707.14-10.8Q707.49-6.8 709.76-4.73 712.04-2.65 715.99-2.65L715.99-2.65Q718.09-2.65 719.79-3.35 721.49-4.05 722.49-4.85L722.49-4.85Q723.04-4.5 723.36-4.03 723.69-3.55 723.69-2.95L723.69-2.95Q723.69-2 722.61-1.18 721.54-0.35 719.76 0.15 717.99 0.65 715.79 0.65L715.79 0.65Q711.94 0.65 709.11-0.75 706.29-2.15 704.76-4.93 703.24-7.7 703.24-11.7L703.24-11.7Q703.24-14.55 704.06-16.78 704.89-19 706.36-20.55 707.84-22.1 709.89-22.93 711.94-23.75 714.34-23.75L714.34-23.75Q717.39-23.75 719.71-22.45 722.04-21.15 723.36-18.82 724.69-16.5 724.69-13.5L724.69-13.5Q724.69-12.4 724.19-11.93 723.69-11.45 722.79-11.35L722.79-11.35Z" opacity="1" transform="matrix(1,0,0,1,0,0)" fill="#000000" class="slogan-text-1" data-fill-palette-color="secondary" id="text-1"></path></svg></g></svg></g></svg></g></svg></g><g transform="matrix(1,0,0,1,156.56955403699135,0)"><svg viewBox="0 0 84.35849192601725 96.53977899928348" height="96.53977899928348" width="84.35849192601725"><g><svg xmlns="http://www.w3.org/2000/svg" xmlns:xlink="http://www.w3.org/1999/xlink" version="1.1" x="8" y="0" viewBox="15 1.0450300726496258 69.069 97.5431992109777" enable-background="new 0 0 100 100" xml:space="preserve" height="96.53977899928348" width="68.35849192601725" class="icon-icon-0" data-fill-palette-color="accent" id="icon-0"><g fill="#ffc604" data-fill-palette-color="accent"><path d="M69.24 2.748c-3.339-1.035-6.021-1.329-6.021-1.329S51.165 0.973 42.056 1.061c-8.931-0.356-14.555 5.358-14.555 5.358-1.964 1.964-3.751 3.841-7.144 10.895C15.445 28.296 15 49.281 15 49.281s0.445 20.984 5.357 31.968c3.393 7.053 5.18 10.002 7.144 11.966 0 0 5.624 5.716 14.555 5.357 9.109 0.09 21.163-0.358 21.163-0.358s1.146-0.094 2.78-0.365c0.761-0.126 4.165-0.637 5.001-0.92 2.102-0.712 4.217-2.367 5.844-5.209 1.341-2.344 2.558-5.276 3.61-8.687 0.83-2.697 1.56-5.692 2.168-8.926 1.299-6.919 1.447-15.546 1.447-24.087C84.069 24.607 77.492 3.878 69.24 2.748zM69.392 87.46c-6.36 0.054-11.661-16.991-11.839-38.074-0.178-21.081 4.832-38.216 11.191-38.27 6.362-0.054 11.662 16.993 11.842 38.076C80.763 70.273 75.752 87.407 69.392 87.46z" fill="#000000" data-fill-palette-color="accent"></path></g></svg></g></svg></g><g><rect width="80.03643403699137" height="3.397707007824778" y="92.1420719914587" x="240.9280459630086" fill="#000000" data-fill-palette-color="secondary"></rect><rect width="80.03643403699137" height="3.397707007824778" y="92.1420719914587" x="76.53311999999997" fill="#000000" data-fill-palette-color="secondary"></rect></g></svg></g><defs></defs></svg><rect width="395.52" height="186.64840817802514" fill="none" stroke="none" visibility="hidden"></rect></g></svg></g></svg>